<?xml version="1.0" encoding="utf-8"?>
<!-- Generator: Adobe Illustrator 28.0.0, SVG Export Plug-In . SVG Version: 6.00 Build 0)  -->
<svg version="1.1" id="Слой_1" xmlns="http://www.w3.org/2000/svg" xmlns:xlink="http://www.w3.org/1999/xlink" x="0px" y="0px"
	 viewBox="0 0 1000 1000" enable-background="new 0 0 1000 1000" xml:space="preserve">
<path fill="#FF520F" d="M888.84375,1000h-777.6875C49.7663498,1000,0,950.2336426,0,888.84375v-777.6875
	C0,49.7663498,49.7663498,0,111.15625,0h777.6875C950.2336426,0,1000,49.7663498,1000,111.15625v777.6875
	C1000,950.2336426,950.2336426,1000,888.84375,1000z"/>
<path d="M701.2006836,500.8753967l0.874939,0.4593811l-0.2437134,0.2531128l-0.6312256-0.6624756
	c-19.9559326,26.6652222-36.6494141,56.0241089-49.5492554,87.4173584c-0.1937256,0.4593506-0.3874512,0.9156494-0.5843506,1.375
	c-12.4091797,30.6307373-21.2683716,63.145874-25.8902588,97.1359863v0.609375
	c-2.484314,18.0122681-3.749939,36.4337769-3.749939,55.1585693c0,15.9247437,0.9249878,31.6494751,2.7280884,47.0648804
	H253.7216797V686.8537598h321.6653442c0.5812378-4.2249146,1.312439-8.3967285,2.0437012-12.5685425L267.544281,588.5458984
	l25.7952271-99.3734436l313.7314148,86.8080139c1.4593506-3.3093262,2.9186401-6.6155396,4.4280396-9.8717041
	l-281.558075-167.8130188l49.7898254-89.0448608l285.7455444,170.2529907
	c2.2374268-2.7968445,4.5249023-5.5968018,6.9092407-8.3436279L438.2797852,229.5683746l70.4769897-72.7626038
	L746.609314,402.3675537l25.1121216,25.9496155C745.2937622,449.2293396,721.5441284,473.6539612,701.2006836,500.8753967z"/>
</svg>
